<mxfile host="app.diagrams.net" agent="Mozilla/5.0 (Windows NT 10.0; Win64; x64) AppleWebKit/537.36 (KHTML, like Gecko) Chrome/137.0.0.0 Safari/537.36 Edg/137.0.0.0" version="27.1.5">
  <diagram name="Страница — 1" id="x38zISoCeZ7n9oiEM4VF">
    <mxGraphModel dx="3427" dy="2152" grid="1" gridSize="10" guides="1" tooltips="1" connect="1" arrows="1" fold="1" page="1" pageScale="1" pageWidth="827" pageHeight="1169" math="0" shadow="0">
      <root>
        <mxCell id="0" />
        <mxCell id="1" parent="0" />
        <mxCell id="nDJyNKxF4hpMSDI-nYHR-59" value="PostgreSQL" style="shape=datastore;whiteSpace=wrap;html=1;" vertex="1" parent="1">
          <mxGeometry x="-1130" y="145" width="90" height="90" as="geometry" />
        </mxCell>
        <mxCell id="nDJyNKxF4hpMSDI-nYHR-88" style="edgeStyle=orthogonalEdgeStyle;rounded=0;orthogonalLoop=1;jettySize=auto;html=1;entryX=1;entryY=0.5;entryDx=0;entryDy=0;" edge="1" parent="1" source="nDJyNKxF4hpMSDI-nYHR-86" target="nDJyNKxF4hpMSDI-nYHR-59">
          <mxGeometry relative="1" as="geometry">
            <mxPoint x="-1160" y="190" as="targetPoint" />
          </mxGeometry>
        </mxCell>
        <mxCell id="nDJyNKxF4hpMSDI-nYHR-86" value="&lt;p style=&quot;margin:0px;margin-top:6px;text-align:center;&quot;&gt;&lt;b&gt;Backend&lt;/b&gt;&lt;/p&gt;&lt;hr size=&quot;1&quot; style=&quot;border-style:solid;&quot;&gt;&lt;p style=&quot;margin:0px;margin-left:8px;&quot;&gt;&lt;br&gt;&lt;/p&gt;" style="align=left;overflow=fill;html=1;dropTarget=0;whiteSpace=wrap;" vertex="1" parent="1">
          <mxGeometry x="-970" y="-110" width="840" height="600" as="geometry" />
        </mxCell>
        <mxCell id="nDJyNKxF4hpMSDI-nYHR-87" value="" style="shape=component;jettyWidth=8;jettyHeight=4;" vertex="1" parent="nDJyNKxF4hpMSDI-nYHR-86">
          <mxGeometry x="1" width="20" height="20" relative="1" as="geometry">
            <mxPoint x="-24" y="4" as="offset" />
          </mxGeometry>
        </mxCell>
        <mxCell id="nDJyNKxF4hpMSDI-nYHR-23" value="&lt;p style=&quot;margin:0px;margin-top:6px;text-align:center;&quot;&gt;&lt;b&gt;auth&lt;/b&gt;&lt;/p&gt;&lt;hr size=&quot;1&quot; style=&quot;border-style:solid;&quot;&gt;&lt;p style=&quot;margin: 0px 0px 0px 8px;&quot;&gt;__init__.py&lt;/p&gt;&lt;p style=&quot;margin: 0px 0px 0px 8px;&quot;&gt;schemas.py&lt;br&gt;auth_helpers.py&lt;/p&gt;&lt;p style=&quot;margin: 0px 0px 0px 8px;&quot;&gt;dependencies.py&lt;/p&gt;&lt;p style=&quot;margin: 0px 0px 0px 8px;&quot;&gt;utils.py&lt;/p&gt;&lt;p style=&quot;margin: 0px 0px 0px 8px;&quot;&gt;views.py&lt;/p&gt;" style="align=left;overflow=fill;html=1;dropTarget=0;whiteSpace=wrap;" vertex="1" parent="1">
          <mxGeometry x="-765" y="-70" width="180" height="120" as="geometry" />
        </mxCell>
        <mxCell id="nDJyNKxF4hpMSDI-nYHR-24" value="" style="shape=component;jettyWidth=8;jettyHeight=4;" vertex="1" parent="nDJyNKxF4hpMSDI-nYHR-23">
          <mxGeometry x="1" width="20" height="20" relative="1" as="geometry">
            <mxPoint x="-24" y="4" as="offset" />
          </mxGeometry>
        </mxCell>
        <mxCell id="nDJyNKxF4hpMSDI-nYHR-25" value="&lt;p style=&quot;margin:0px;margin-top:6px;text-align:center;&quot;&gt;&lt;b&gt;users&lt;/b&gt;&lt;/p&gt;&lt;hr size=&quot;1&quot; style=&quot;border-style:solid;&quot;&gt;&lt;p style=&quot;margin: 0px 0px 0px 8px;&quot;&gt;__init__.py&lt;/p&gt;&lt;p style=&quot;margin: 0px 0px 0px 8px;&quot;&gt;schemas.py&lt;br&gt;crud.py&lt;/p&gt;&lt;p style=&quot;margin: 0px 0px 0px 8px;&quot;&gt;views.py&lt;/p&gt;" style="align=left;overflow=fill;html=1;dropTarget=0;whiteSpace=wrap;" vertex="1" parent="1">
          <mxGeometry x="-960" y="70" width="190" height="90" as="geometry" />
        </mxCell>
        <mxCell id="nDJyNKxF4hpMSDI-nYHR-26" value="" style="shape=component;jettyWidth=8;jettyHeight=4;" vertex="1" parent="nDJyNKxF4hpMSDI-nYHR-25">
          <mxGeometry x="1" width="20" height="20" relative="1" as="geometry">
            <mxPoint x="-24" y="4" as="offset" />
          </mxGeometry>
        </mxCell>
        <mxCell id="nDJyNKxF4hpMSDI-nYHR-65" style="edgeStyle=orthogonalEdgeStyle;rounded=0;orthogonalLoop=1;jettySize=auto;html=1;entryX=1;entryY=0.5;entryDx=0;entryDy=0;exitX=0.11;exitY=0.508;exitDx=0;exitDy=0;exitPerimeter=0;dashed=1;dashPattern=1 2;" edge="1" parent="1" source="nDJyNKxF4hpMSDI-nYHR-27" target="nDJyNKxF4hpMSDI-nYHR-25">
          <mxGeometry relative="1" as="geometry" />
        </mxCell>
        <mxCell id="nDJyNKxF4hpMSDI-nYHR-66" style="edgeStyle=orthogonalEdgeStyle;rounded=0;orthogonalLoop=1;jettySize=auto;html=1;entryX=0.5;entryY=1;entryDx=0;entryDy=0;dashed=1;dashPattern=1 2;" edge="1" parent="1" source="nDJyNKxF4hpMSDI-nYHR-27" target="nDJyNKxF4hpMSDI-nYHR-23">
          <mxGeometry relative="1" as="geometry" />
        </mxCell>
        <mxCell id="nDJyNKxF4hpMSDI-nYHR-27" value="main.py" style="shape=module;align=left;spacingLeft=20;align=center;verticalAlign=top;whiteSpace=wrap;html=1;" vertex="1" parent="1">
          <mxGeometry x="-725" y="160" width="100" height="50" as="geometry" />
        </mxCell>
        <mxCell id="nDJyNKxF4hpMSDI-nYHR-30" style="edgeStyle=orthogonalEdgeStyle;rounded=0;orthogonalLoop=1;jettySize=auto;html=1;entryX=0;entryY=0.5;entryDx=0;entryDy=0;dashed=1;dashPattern=1 2;" edge="1" parent="1" source="nDJyNKxF4hpMSDI-nYHR-27" target="nDJyNKxF4hpMSDI-nYHR-47">
          <mxGeometry relative="1" as="geometry">
            <mxPoint x="-330" y="152" as="targetPoint" />
          </mxGeometry>
        </mxCell>
        <mxCell id="nDJyNKxF4hpMSDI-nYHR-32" value="" style="group" vertex="1" connectable="0" parent="1">
          <mxGeometry x="-800" y="270" width="420" height="250" as="geometry" />
        </mxCell>
        <mxCell id="nDJyNKxF4hpMSDI-nYHR-33" value="" style="shape=folder;fontStyle=1;spacingTop=10;tabWidth=40;tabHeight=14;tabPosition=left;html=1;whiteSpace=wrap;" vertex="1" parent="nDJyNKxF4hpMSDI-nYHR-32">
          <mxGeometry x="10" width="220" height="210" as="geometry" />
        </mxCell>
        <mxCell id="nDJyNKxF4hpMSDI-nYHR-36" value="core" style="text;align=center;fontStyle=1;verticalAlign=middle;spacingLeft=3;spacingRight=3;strokeColor=none;rotatable=0;points=[[0,0.5],[1,0.5]];portConstraint=eastwest;html=1;" vertex="1" parent="nDJyNKxF4hpMSDI-nYHR-32">
          <mxGeometry y="12" width="80" height="26" as="geometry" />
        </mxCell>
        <mxCell id="nDJyNKxF4hpMSDI-nYHR-39" value="&lt;p style=&quot;margin:0px;margin-top:6px;text-align:center;&quot;&gt;&lt;b&gt;models&lt;/b&gt;&lt;/p&gt;&lt;hr size=&quot;1&quot; style=&quot;border-style:solid;&quot;&gt;&lt;p style=&quot;margin: 0px 0px 0px 8px;&quot;&gt;__init__.py&lt;/p&gt;&lt;p style=&quot;margin: 0px 0px 0px 8px;&quot;&gt;models.py&lt;/p&gt;&lt;p style=&quot;margin:0px;margin-left:8px;&quot;&gt;&lt;br&gt;&lt;/p&gt;" style="align=left;overflow=fill;html=1;dropTarget=0;whiteSpace=wrap;" vertex="1" parent="nDJyNKxF4hpMSDI-nYHR-32">
          <mxGeometry x="20" y="45" width="130" height="65" as="geometry" />
        </mxCell>
        <mxCell id="nDJyNKxF4hpMSDI-nYHR-40" value="" style="shape=component;jettyWidth=8;jettyHeight=4;" vertex="1" parent="nDJyNKxF4hpMSDI-nYHR-39">
          <mxGeometry x="1" width="20" height="20" relative="1" as="geometry">
            <mxPoint x="-24" y="4" as="offset" />
          </mxGeometry>
        </mxCell>
        <mxCell id="nDJyNKxF4hpMSDI-nYHR-43" value="config.py" style="shape=module;align=left;spacingLeft=20;align=center;verticalAlign=top;whiteSpace=wrap;html=1;" vertex="1" parent="nDJyNKxF4hpMSDI-nYHR-32">
          <mxGeometry x="20" y="130" width="100" height="50" as="geometry" />
        </mxCell>
        <mxCell id="nDJyNKxF4hpMSDI-nYHR-50" value="" style="group" vertex="1" connectable="0" parent="1">
          <mxGeometry x="-560" y="-10" width="415" height="270" as="geometry" />
        </mxCell>
        <mxCell id="nDJyNKxF4hpMSDI-nYHR-47" value="&lt;p style=&quot;margin:0px;margin-top:6px;text-align:center;&quot;&gt;&lt;b&gt;api_v1&lt;/b&gt;&lt;/p&gt;&lt;hr size=&quot;1&quot; style=&quot;border-style:solid;&quot;&gt;&lt;p style=&quot;margin:0px;margin-left:8px;&quot;&gt;&lt;br&gt;&lt;/p&gt;" style="align=left;overflow=fill;html=1;dropTarget=0;whiteSpace=wrap;" vertex="1" parent="nDJyNKxF4hpMSDI-nYHR-50">
          <mxGeometry width="415" height="270" as="geometry" />
        </mxCell>
        <mxCell id="nDJyNKxF4hpMSDI-nYHR-48" value="" style="shape=component;jettyWidth=8;jettyHeight=4;" vertex="1" parent="nDJyNKxF4hpMSDI-nYHR-47">
          <mxGeometry x="1" width="20" height="20" relative="1" as="geometry">
            <mxPoint x="-24" y="4" as="offset" />
          </mxGeometry>
        </mxCell>
        <mxCell id="nDJyNKxF4hpMSDI-nYHR-5" value="&lt;p style=&quot;margin:0px;margin-top:6px;text-align:center;&quot;&gt;&lt;b&gt;skills&lt;/b&gt;&lt;/p&gt;&lt;hr size=&quot;1&quot; style=&quot;border-style:solid;&quot;&gt;&lt;p style=&quot;margin:0px;margin-left:8px;&quot;&gt;__init__.py&lt;/p&gt;&lt;p style=&quot;margin:0px;margin-left:8px;&quot;&gt;schemas.py&lt;br&gt;crud.py&lt;/p&gt;&lt;p style=&quot;margin:0px;margin-left:8px;&quot;&gt;views.py&lt;/p&gt;&lt;p style=&quot;margin:0px;margin-left:8px;&quot;&gt;&lt;br&gt;&lt;/p&gt;" style="align=left;overflow=fill;html=1;dropTarget=0;whiteSpace=wrap;" vertex="1" parent="nDJyNKxF4hpMSDI-nYHR-50">
          <mxGeometry x="15" y="40" width="180" height="90" as="geometry" />
        </mxCell>
        <mxCell id="nDJyNKxF4hpMSDI-nYHR-6" value="" style="shape=component;jettyWidth=8;jettyHeight=4;" vertex="1" parent="nDJyNKxF4hpMSDI-nYHR-5">
          <mxGeometry x="1" width="20" height="20" relative="1" as="geometry">
            <mxPoint x="-24" y="4" as="offset" />
          </mxGeometry>
        </mxCell>
        <mxCell id="nDJyNKxF4hpMSDI-nYHR-3" value="&lt;p style=&quot;margin:0px;margin-top:6px;text-align:center;&quot;&gt;&lt;b&gt;vacancies&lt;/b&gt;&lt;/p&gt;&lt;hr size=&quot;1&quot; style=&quot;border-style:solid;&quot;&gt;&lt;p style=&quot;margin: 0px 0px 0px 8px;&quot;&gt;__init__.py&lt;/p&gt;&lt;p style=&quot;margin: 0px 0px 0px 8px;&quot;&gt;schemas.py&lt;br&gt;crud.py&lt;/p&gt;&lt;p style=&quot;margin: 0px 0px 0px 8px;&quot;&gt;views.py&lt;/p&gt;&lt;p style=&quot;margin:0px;margin-left:8px;&quot;&gt;&lt;br&gt;&lt;/p&gt;" style="align=left;overflow=fill;html=1;dropTarget=0;whiteSpace=wrap;" vertex="1" parent="nDJyNKxF4hpMSDI-nYHR-50">
          <mxGeometry x="15" y="150" width="180" height="90" as="geometry" />
        </mxCell>
        <mxCell id="nDJyNKxF4hpMSDI-nYHR-4" value="" style="shape=component;jettyWidth=8;jettyHeight=4;" vertex="1" parent="nDJyNKxF4hpMSDI-nYHR-3">
          <mxGeometry x="1" width="20" height="20" relative="1" as="geometry">
            <mxPoint x="-24" y="4" as="offset" />
          </mxGeometry>
        </mxCell>
        <mxCell id="nDJyNKxF4hpMSDI-nYHR-9" value="&lt;p style=&quot;margin:0px;margin-top:6px;text-align:center;&quot;&gt;&lt;b&gt;profiles&lt;/b&gt;&lt;/p&gt;&lt;hr size=&quot;1&quot; style=&quot;border-style:solid;&quot;&gt;&lt;p style=&quot;margin: 0px 0px 0px 8px;&quot;&gt;__init__.py&lt;/p&gt;&lt;p style=&quot;margin: 0px 0px 0px 8px;&quot;&gt;schemas.py&lt;br&gt;crud.py&lt;/p&gt;&lt;p style=&quot;margin: 0px 0px 0px 8px;&quot;&gt;views.py&lt;/p&gt;&lt;p style=&quot;margin:0px;margin-left:8px;&quot;&gt;&lt;br&gt;&lt;/p&gt;" style="align=left;overflow=fill;html=1;dropTarget=0;whiteSpace=wrap;" vertex="1" parent="nDJyNKxF4hpMSDI-nYHR-50">
          <mxGeometry x="215" y="40" width="180" height="90" as="geometry" />
        </mxCell>
        <mxCell id="nDJyNKxF4hpMSDI-nYHR-10" value="" style="shape=component;jettyWidth=8;jettyHeight=4;" vertex="1" parent="nDJyNKxF4hpMSDI-nYHR-9">
          <mxGeometry x="1" width="20" height="20" relative="1" as="geometry">
            <mxPoint x="-24" y="4" as="offset" />
          </mxGeometry>
        </mxCell>
        <mxCell id="nDJyNKxF4hpMSDI-nYHR-7" value="&lt;p style=&quot;margin:0px;margin-top:6px;text-align:center;&quot;&gt;&lt;b&gt;skill_tests&lt;/b&gt;&lt;/p&gt;&lt;hr size=&quot;1&quot; style=&quot;border-style:solid;&quot;&gt;&lt;p style=&quot;margin: 0px 0px 0px 8px;&quot;&gt;__init__.py&lt;/p&gt;&lt;p style=&quot;margin: 0px 0px 0px 8px;&quot;&gt;schemas.py&lt;br&gt;crud.py&lt;/p&gt;&lt;p style=&quot;margin: 0px 0px 0px 8px;&quot;&gt;views.py&lt;/p&gt;&lt;p style=&quot;margin:0px;margin-left:8px;&quot;&gt;&lt;br&gt;&lt;/p&gt;" style="align=left;overflow=fill;html=1;dropTarget=0;whiteSpace=wrap;" vertex="1" parent="nDJyNKxF4hpMSDI-nYHR-50">
          <mxGeometry x="215" y="150" width="170" height="90" as="geometry" />
        </mxCell>
        <mxCell id="nDJyNKxF4hpMSDI-nYHR-8" value="" style="shape=component;jettyWidth=8;jettyHeight=4;" vertex="1" parent="nDJyNKxF4hpMSDI-nYHR-7">
          <mxGeometry x="1" width="20" height="20" relative="1" as="geometry">
            <mxPoint x="-24" y="4" as="offset" />
          </mxGeometry>
        </mxCell>
        <mxCell id="nDJyNKxF4hpMSDI-nYHR-67" style="edgeStyle=orthogonalEdgeStyle;rounded=0;orthogonalLoop=1;jettySize=auto;html=1;entryX=0.521;entryY=0.062;entryDx=0;entryDy=0;entryPerimeter=0;dashed=1;dashPattern=1 2;" edge="1" parent="1" source="nDJyNKxF4hpMSDI-nYHR-27" target="nDJyNKxF4hpMSDI-nYHR-33">
          <mxGeometry relative="1" as="geometry">
            <mxPoint x="-675" y="280" as="targetPoint" />
          </mxGeometry>
        </mxCell>
        <mxCell id="nDJyNKxF4hpMSDI-nYHR-89" value="SQL" style="text;html=1;align=center;verticalAlign=middle;resizable=0;points=[];autosize=1;strokeColor=none;fillColor=none;" vertex="1" parent="1">
          <mxGeometry x="-1030" y="160" width="50" height="30" as="geometry" />
        </mxCell>
        <mxCell id="nDJyNKxF4hpMSDI-nYHR-92" style="edgeStyle=orthogonalEdgeStyle;rounded=0;orthogonalLoop=1;jettySize=auto;html=1;entryX=1;entryY=0.5;entryDx=0;entryDy=0;dashed=1;dashPattern=1 2;" edge="1" parent="1" source="nDJyNKxF4hpMSDI-nYHR-90" target="nDJyNKxF4hpMSDI-nYHR-86">
          <mxGeometry relative="1" as="geometry">
            <Array as="points">
              <mxPoint x="-100" y="190" />
              <mxPoint x="-100" y="190" />
            </Array>
          </mxGeometry>
        </mxCell>
        <mxCell id="nDJyNKxF4hpMSDI-nYHR-90" value="&lt;p style=&quot;margin:0px;margin-top:6px;text-align:center;&quot;&gt;&lt;b&gt;Frontend&lt;/b&gt;&lt;/p&gt;&lt;hr size=&quot;1&quot; style=&quot;border-style:solid;&quot;&gt;&lt;p style=&quot;margin:0px;margin-left:8px;&quot;&gt;edit_vacancy.html&lt;/p&gt;&lt;p style=&quot;margin:0px;margin-left:8px;&quot;&gt;index.html&lt;/p&gt;&lt;p style=&quot;margin:0px;margin-left:8px;&quot;&gt;login.html&lt;/p&gt;&lt;p style=&quot;margin:0px;margin-left:8px;&quot;&gt;my_vacancies&lt;span style=&quot;background-color: transparent; color: light-dark(rgb(0, 0, 0), rgb(255, 255, 255));&quot;&gt;.html&lt;/span&gt;&lt;/p&gt;&lt;p style=&quot;margin:0px;margin-left:8px;&quot;&gt;&lt;span style=&quot;background-color: transparent; color: light-dark(rgb(0, 0, 0), rgb(255, 255, 255));&quot;&gt;profile&lt;/span&gt;&lt;span style=&quot;background-color: transparent; color: light-dark(rgb(0, 0, 0), rgb(255, 255, 255));&quot;&gt;.html&lt;/span&gt;&lt;/p&gt;&lt;p style=&quot;margin:0px;margin-left:8px;&quot;&gt;&lt;span style=&quot;background-color: transparent; color: light-dark(rgb(0, 0, 0), rgb(255, 255, 255));&quot;&gt;register&lt;/span&gt;&lt;span style=&quot;background-color: transparent; color: light-dark(rgb(0, 0, 0), rgb(255, 255, 255));&quot;&gt;.html&lt;/span&gt;&lt;/p&gt;&lt;p style=&quot;margin:0px;margin-left:8px;&quot;&gt;&lt;span style=&quot;background-color: transparent; color: light-dark(rgb(0, 0, 0), rgb(255, 255, 255));&quot;&gt;skills&lt;/span&gt;&lt;span style=&quot;background-color: transparent; color: light-dark(rgb(0, 0, 0), rgb(255, 255, 255));&quot;&gt;.html&lt;/span&gt;&lt;/p&gt;&lt;p style=&quot;margin:0px;margin-left:8px;&quot;&gt;&lt;span style=&quot;background-color: transparent; color: light-dark(rgb(0, 0, 0), rgb(255, 255, 255));&quot;&gt;test&lt;/span&gt;&lt;span style=&quot;background-color: transparent; color: light-dark(rgb(0, 0, 0), rgb(255, 255, 255));&quot;&gt;.html&lt;/span&gt;&lt;/p&gt;&lt;p style=&quot;margin:0px;margin-left:8px;&quot;&gt;&lt;span style=&quot;background-color: transparent; color: light-dark(rgb(0, 0, 0), rgb(255, 255, 255));&quot;&gt;vacancy_tests&lt;/span&gt;&lt;span style=&quot;background-color: transparent; color: light-dark(rgb(0, 0, 0), rgb(255, 255, 255));&quot;&gt;.html&lt;/span&gt;&lt;/p&gt;&lt;p style=&quot;margin:0px;margin-left:8px;&quot;&gt;&lt;span style=&quot;background-color: transparent; color: light-dark(rgb(0, 0, 0), rgb(255, 255, 255));&quot;&gt;vacancy&lt;/span&gt;&lt;span style=&quot;background-color: transparent; color: light-dark(rgb(0, 0, 0), rgb(255, 255, 255));&quot;&gt;.html&lt;/span&gt;&lt;/p&gt;&lt;p style=&quot;margin:0px;margin-left:8px;&quot;&gt;&lt;span style=&quot;background-color: transparent; color: light-dark(rgb(0, 0, 0), rgb(255, 255, 255));&quot;&gt;&lt;br&gt;&lt;/span&gt;&lt;/p&gt;&lt;p style=&quot;margin:0px;margin-left:8px;&quot;&gt;&lt;br&gt;&lt;/p&gt;" style="align=left;overflow=fill;html=1;dropTarget=0;whiteSpace=wrap;" vertex="1" parent="1">
          <mxGeometry x="-60" y="100" width="180" height="180" as="geometry" />
        </mxCell>
        <mxCell id="nDJyNKxF4hpMSDI-nYHR-91" value="" style="shape=component;jettyWidth=8;jettyHeight=4;" vertex="1" parent="nDJyNKxF4hpMSDI-nYHR-90">
          <mxGeometry x="1" width="20" height="20" relative="1" as="geometry">
            <mxPoint x="-24" y="4" as="offset" />
          </mxGeometry>
        </mxCell>
        <mxCell id="nDJyNKxF4hpMSDI-nYHR-93" value="REST API" style="text;html=1;align=center;verticalAlign=middle;resizable=0;points=[];autosize=1;strokeColor=none;fillColor=none;" vertex="1" parent="1">
          <mxGeometry x="-130" y="160" width="80" height="30" as="geometry" />
        </mxCell>
      </root>
    </mxGraphModel>
  </diagram>
</mxfile>
